<svg width="26" height="26" viewBox="0 0 26 26" fill="none" xmlns="http://www.w3.org/2000/svg">
<path fill-rule="evenodd" clip-rule="evenodd" d="M23.5625 2.4375C23.778 2.4375 23.9846 2.5231 24.137 2.67548C24.2894 2.82785 24.375 3.03451 24.375 3.25V11.05C24.375 11.5835 24.2699 12.1118 24.0657 12.6047C23.8616 13.0975 23.5623 13.5454 23.1851 13.9226C22.8079 14.2999 22.36 14.5991 21.8671 14.8033C21.3743 15.0074 20.846 15.1125 20.3125 15.1125H4.39886L9.83774 20.5497C9.9903 20.7023 10.076 20.9092 10.076 21.125C10.076 21.3408 9.9903 21.5477 9.83774 21.7003C9.68517 21.8528 9.47825 21.9385 9.26249 21.9385C9.04673 21.9385 8.8398 21.8528 8.68724 21.7003L1.86224 14.8753C1.78657 14.7998 1.72654 14.7101 1.68558 14.6114C1.64462 14.5127 1.62354 14.4069 1.62354 14.3C1.62354 14.1931 1.64462 14.0873 1.68558 13.9886C1.72654 13.8899 1.78657 13.8002 1.86224 13.7248L8.36224 7.22475C8.5148 7.07218 8.72173 6.98647 8.93749 6.98647C9.15325 6.98647 9.36017 7.07218 9.51274 7.22475C9.6653 7.37732 9.75101 7.58424 9.75101 7.8C9.75101 8.01576 9.6653 8.22268 9.51274 8.37525L4.39886 13.4875H20.3125C20.959 13.4875 21.5789 13.2307 22.0361 12.7736C22.4932 12.3165 22.75 11.6965 22.75 11.05V3.25C22.75 3.03451 22.8356 2.82785 22.988 2.67548C23.1403 2.5231 23.347 2.4375 23.5625 2.4375Z" fill="#F8F8F8"/>
</svg>
