<svg width="16" height="16" viewBox="0 0 16 16" fill="none" xmlns="http://www.w3.org/2000/svg">
<path d="M0.248118 15.7489L0.251057 15.7518C0.328985 15.8303 0.421662 15.8927 0.52376 15.9352C0.625857 15.9778 0.73536 15.9997 0.845974 15.9998C0.939049 15.9998 1.03148 15.9844 1.11958 15.9544L5.91641 14.3272L15.1212 5.1224C15.6839 4.55964 16 3.79639 16 3.00056C16 2.20472 15.6838 1.4415 15.121 0.878788C14.5583 0.316075 13.795 -3.48385e-05 12.9992 2.87985e-09C12.2033 3.48443e-05 11.4401 0.316211 10.8774 0.878974L1.67262 10.0838L0.0455449 14.8805C-0.00570781 15.0296 -0.0138887 15.1902 0.0219403 15.3438C0.0577693 15.4974 0.136158 15.6378 0.248118 15.7489V15.7489ZM11.6418 1.64329C12.0023 1.28555 12.4899 1.08523 12.9977 1.08621C13.5056 1.08718 13.9924 1.28937 14.3515 1.6485C14.7106 2.00762 14.9128 2.49442 14.9138 3.0023C14.9147 3.51017 14.7144 3.99773 14.3567 4.35822L13.1462 5.56866L10.4313 2.85373L11.6418 1.64329ZM2.61539 10.6697L9.66697 3.61805L12.3819 6.33298L5.33028 13.3846L1.2216 14.7784L2.61539 10.6697Z" fill="white"/>
</svg>
